<?xml version="1.0" encoding="UTF-8"?>
<svg width="16px" height="16px" viewBox="0 0 16 16" version="1.1" xmlns="http://www.w3.org/2000/svg" xmlns:xlink="http://www.w3.org/1999/xlink">
    <!-- Generator: Sketch 49.3 (51167) - http://www.bohemiancoding.com/sketch -->
    <title>icons/clock</title>
    <desc>Created with Sketch.</desc>
    <defs></defs>
    <g id="icons/clock" stroke="none" stroke-width="1" fill="none" fill-rule="evenodd">
        <g transform="translate(1.000000, 1.000000)" fill="#20285F" fill-rule="nonzero" id="Shape">
            <path d="M7,1.74978999 C9.8876155,1.74978999 12.25021,4.1123845 12.25021,7 C12.25021,9.8876155 9.8876155,12.25021 7,12.25021 C4.1123845,12.25021 1.74978999,9.8876155 1.74978999,7 C1.74978999,4.1123845 4.1123845,1.74978999 7,1.74978999 Z M7,1.49219943e-15 C3.15012601,1.49219943e-15 0,3.15012601 0,7 C0,10.849874 3.15012601,14 7,14 C10.849874,14 14,10.849874 14,7 C14,3.15012601 10.849874,0 7,1.49219943e-15 Z"></path>
            <path d="M9.50192106,9.33332733 C9.38045074,9.33332733 9.25898041,9.29191897 9.17774105,9.24972856 L6.22222222,7.33321904 L6.22222222,5.29170238 C6.22222222,4.95808332 6.50539385,4.66666667 6.82957386,4.66666667 C7.15375387,4.66666667 7.4369255,4.95808332 7.4369255,5.29170238 L7.4369255,6.62537859 L9.82610107,8.16686668 C10.1092727,8.33328219 10.1905121,8.75050003 10.0288108,9.04191668 C9.90658051,9.20833219 9.70463075,9.33333333 9.5019405,9.33333333 L9.50192106,9.33332733 Z"></path>
        </g>
    </g>
</svg>