<?xml version="1.0" encoding="UTF-8"?>
<svg width="40px" height="40px" viewBox="0 0 40 40" version="1.1" xmlns="http://www.w3.org/2000/svg" xmlns:xlink="http://www.w3.org/1999/xlink">
    <!-- Generator: Sketch 49.3 (51167) - http://www.bohemiancoding.com/sketch -->
    <title>like</title>
    <desc>Created with Sketch.</desc>
    <defs></defs>
    <g id="Page-1" stroke="none" stroke-width="1" fill="none" fill-rule="evenodd">
        <g id="Artboard-Copy-3" transform="translate(-488.000000, -409.000000)">
            <g id="like" transform="translate(488.000000, 409.000000)">
                <path d="M20,40 C8.954305,40 0,31.045695 0,20 C0,8.954305 8.954305,0 20,0 C31.045695,0 40,8.954305 40,20 C40,31.045695 31.045695,40 20,40 Z M28.4736712,15.1880303 C27.8907402,14.1252572 24.236299,10.5664465 19.9999436,15.7189068 C15.5510586,10.5664465 12.1081301,14.1252572 11.5262159,15.1880303 C10.4666186,17.1531915 11.1021736,20.128344 12.5858132,21.5626286 L20.0009605,29 L27.4161077,21.5626286 C28.8977389,20.128344 29.5332939,17.1542114 28.4737221,15.1880303 L28.4736712,15.1880303 Z" id="Combined-Shape" fill="#FFFFFF"></path>
                <g id="np_heart_888700_000000" transform="translate(11.000000, 13.000000)"></g>
            </g>
        </g>
    </g>
</svg>