<?xml version="1.0" encoding="UTF-8"?>
<svg width="20px" height="24px" viewBox="0 0 20 24" version="1.1" xmlns="http://www.w3.org/2000/svg" xmlns:xlink="http://www.w3.org/1999/xlink">
    <!-- Generator: Sketch 49.3 (51167) - http://www.bohemiancoding.com/sketch -->
    <title>notes</title>
    <desc>Created with Sketch.</desc>
    <defs></defs>
    <g id="Symbols" stroke="none" stroke-width="1" fill="none" fill-rule="evenodd">
        <g id="item/weekly-geek" transform="translate(-215.000000, -195.000000)" fill="#445BED">
            <g id="Group-8">
                <g transform="translate(215.000000, 195.000000)">
                    <path d="M3,2.14285714 L3,3.9 C3,5.05979797 3.94020203,6 5.1,6 L14.9,6 C16.059798,6 17,5.05979797 17,3.9 L17,2.14285714 L19,2.14285714 C19.5522847,2.14285714 20,2.59057239 20,3.14285714 L20,23 C20,23.5522847 19.5522847,24 19,24 L1,24 C0.44771525,24 6.76353751e-17,23.5522847 0,23 L0,3.14285714 C-6.76353751e-17,2.59057239 0.44771525,2.14285714 1,2.14285714 L3,2.14285714 Z M4,9 L4,11 L15,11 L15,9 L4,9 Z M4,13 L4,15 L11,15 L11,13 L4,13 Z M4,17 L4,19 L13,19 L13,17 L4,17 Z M6,0 L14,0 C14.5522847,-1.01453063e-16 15,0.44771525 15,1 L15,3 C15,3.55228475 14.5522847,4 14,4 L6,4 C5.44771525,4 5,3.55228475 5,3 L5,1 C5,0.44771525 5.44771525,1.01453063e-16 6,0 Z" id="notes"></path>
                </g>
            </g>
        </g>
    </g>
</svg>