<?xml version="1.0" encoding="UTF-8"?>
<svg width="40px" height="40px" viewBox="0 0 40 40" version="1.1" xmlns="http://www.w3.org/2000/svg" xmlns:xlink="http://www.w3.org/1999/xlink">
    <!-- Generator: Sketch 49.3 (51167) - http://www.bohemiancoding.com/sketch -->
    <title>Shape</title>
    <desc>Created with Sketch.</desc>
    <defs></defs>
    <g id="Page-1" stroke="none" stroke-width="1" fill="none" fill-rule="evenodd">
        <g id="step-1" transform="translate(-1015.000000, -857.000000)" fill="#4D92A5" fill-rule="nonzero">
            <g id="Group-Copy" transform="translate(920.000000, 724.000000)">
                <g id="np_refresh_1355727_000000" transform="translate(95.000000, 133.000000)">
                    <path d="M20,4.05786516e-14 C8.9533666,4.05786516e-14 9.53959134e-14,8.9533666 9.53959134e-14,20 C9.53959134e-14,31.0466334 8.9533666,40 20,40 C31.0466334,40 40,31.0466334 40,20 C40,8.9533666 31.0466334,4.44998483e-14 20,4.05786516e-14 Z M30.4761905,20 C30.4761905,25.7784945 25.7597763,30.4761905 20,30.4761905 C14.2402237,30.4761905 9.52380952,25.7784945 9.52380952,20 C9.69172405,16.9239132 10.7350945,14.512421 12.3809524,12.3809524 C13.1967614,12.0605238 14.2401235,12.0605238 15.2380952,12.3809524 C15.1579567,12.9324804 15.3258879,13.3481606 15.2380952,13.3333333 C15.3258879,14.1795376 15.159601,14.5952261 15.2380952,15.2380952 C12.9049539,16.8392791 12.2365344,19.6662936 13.3333333,21.9047619 L13.3333333,22.8571429 C14.2401319,25.4029448 16.9528734,27.3156109 20,27.6190476 C24.0478194,27.3156109 27.3034431,24.0323366 27.6190476,20 C27.3034431,18.0876582 26.5518885,16.299865 24.7619048,15.2380952 L24.7619048,16.1904762 C25.2167188,17.4640423 24.5075665,18.1703802 23.8095238,18.0952381 C22.7533826,18.1703802 22.0442302,17.4640423 21.9047619,16.1904762 L21.9047619,11.4285714 C22.0442302,10.2301475 22.7533826,9.52380952 23.8095238,9.52380952 L28.5714286,9.52380952 C29.7669463,9.52380952 30.4760987,10.2301475 30.4761905,11.4285714 C30.4760987,11.9773695 29.7669463,12.6837074 28.5714286,12.3809524 L27.6190476,12.3809524 C29.3903343,14.6371109 30.4760987,17.2546184 30.4761905,20 Z" id="Shape"></path>
                </g>
            </g>
        </g>
    </g>
</svg>