<?xml version="1.0" encoding="UTF-8"?>
<svg width="32px" height="32px" viewBox="0 0 32 32" version="1.1" xmlns="http://www.w3.org/2000/svg" xmlns:xlink="http://www.w3.org/1999/xlink">
    <!-- Generator: Sketch 49.3 (51167) - http://www.bohemiancoding.com/sketch -->
    <title>slack</title>
    <desc>Created with Sketch.</desc>
    <defs></defs>
    <g id="Page-1" stroke="none" stroke-width="1" fill="none" fill-rule="evenodd">
        <g id="dashboard" transform="translate(-328.000000, -185.000000)">
            <g id="Group" transform="translate(304.000000, 161.000000)">
                <g id="slack" transform="translate(24.000000, 24.000000)">
                    <rect id="Rectangle-3" fill="#445BED" x="0" y="0" width="32" height="32" rx="16"></rect>
                    <path d="M15.8365162,20.5543695 C16.0249996,21.2301253 16.3504345,22.0559644 16.4151547,22.4833864 C16.6275061,23.8893572 14.652235,24.5612381 13.877007,23.4263964 C13.5069563,22.8836355 13.4900043,22.3820554 13.2091691,21.4960825 C12.2196598,21.771573 11.6843665,22.1756321 10.938652,22.0793759 C9.8140568,21.9337122 9.52191489,20.3680989 10.3154137,19.6557019 C10.8142617,19.2079488 11.6265944,19.2174496 12.3189437,18.8931906 C12.3189437,18.8931906 11.6674305,16.8266879 11.2948708,15.8412648 C10.5516331,16.0641929 9.4627917,16.5328444 8.97964135,16.4245581 C8.39222124,16.1940262 7.99013207,15.7171385 8.0001843,15.0781212 C8.02091762,13.7747459 9.48979601,13.6797543 10.449229,13.2826991 C10.2117391,12.524614 9.81907487,12.0002223 9.86996328,11.17307 C9.93655889,10.1097274 11.1874326,9.49421896 12.0965723,10.140759 C12.5263091,10.4460164 12.8046191,11.5587599 13.0760293,12.3846313 L16.0596918,11.3972951 C15.7185433,10.2965817 15.0645211,9.21357278 15.8812607,8.38963064 C16.4925649,7.77340882 17.5719653,7.92921527 18.0186059,8.56886481 C18.4294928,9.15784887 18.4715835,9.87476933 18.6864439,10.4991787 C19.4937585,10.221159 20.511607,9.7030904 21.2717164,9.96275701 C21.8955819,10.1761843 22.1965215,11.0077303 22.0262609,11.5314897 C21.71276,12.5327691 20.5837579,12.6657639 19.5772161,13.012186 L20.5566732,16.0641118 C21.3935173,15.7879891 21.8175927,15.4314339 22.6047546,15.43586 C23.4076784,15.4402933 23.9109171,16.0235794 23.9850463,16.6024304 C24.1760387,18.1040252 22.4935528,18.2402627 21.4468986,18.6220777 C21.76857,19.6714933 22.0424892,19.8969506 22.0261644,20.7317068 C21.9978927,22.1598407 20.2085605,22.4904876 19.4433044,21.4049171 C19.1662328,21.0135203 19.0958672,20.3833715 18.8194389,19.5663685 C18.8194389,19.5663685 15.8835446,20.5961503 15.8364197,20.5543533 L15.8365162,20.5543695 Z M17.92931,16.9635252 L16.8606374,13.9115994 L13.966882,14.9439104 L14.9463391,17.9509264 L17.92931,16.9635252 Z" id="Shape" fill="#FFFFFF" fill-rule="nonzero"></path>
                </g>
            </g>
        </g>
    </g>
</svg>