<?xml version="1.0" encoding="UTF-8"?>
<svg width="16px" height="16px" viewBox="0 0 16 16" version="1.1" xmlns="http://www.w3.org/2000/svg" xmlns:xlink="http://www.w3.org/1999/xlink">
    <!-- Generator: Sketch 49.3 (51167) - http://www.bohemiancoding.com/sketch -->
    <title>icons/stopwatch-blue</title>
    <desc>Created with Sketch.</desc>
    <defs></defs>
    <g id="icons/stopwatch-blue" stroke="none" stroke-width="1" fill="none" fill-rule="evenodd">
        <g id="icons/16x16/stopwatch" transform="translate(2.000000, 1.000000)" fill="#445BED" fill-rule="nonzero">
            <path d="M6,13 C8.209139,13 10,11.209139 10,9 C10,6.790861 8.209139,5 6,5 C3.790861,5 2,6.790861 2,9 C2,11.209139 3.790861,13 6,13 Z M7,2 L7,3.08295844 C7.82715406,3.2217286 8.59692106,3.52973794 9.27247761,3.97016307 L10.1213203,3.12132034 C9.73079605,2.73079605 9.73079605,2.09763107 10.1213203,1.70710678 C10.5118446,1.31658249 11.1450096,1.31658249 11.5355339,1.70710678 L12.9497475,3.12132034 C13.3402718,3.51184464 13.3402718,4.14500961 12.9497475,4.53553391 C12.5592232,4.9260582 11.9260582,4.9260582 11.5355339,4.53553391 L10.7444417,5.32662607 C11.5314942,6.34168599 12,7.61613031 12,9 C12,12.3137085 9.3137085,15 6,15 C2.6862915,15 0,12.3137085 0,9 C0,6.02700371 2.16228666,3.55903653 5,3.08295844 L5,2 C4.44771525,2 4,1.55228475 4,1 C4,0.44771525 4.44771525,1.01453063e-16 5,0 L7,0 C7.55228475,-1.01453063e-16 8,0.44771525 8,1 C8,1.55228475 7.55228475,2 7,2 Z M6,7 C5.44771525,7 5,7.44771525 5,8 L5,9 C5,9.55228475 5.44771525,10 6,10 C6.55228475,10 7,9.55228475 7,9 L7,8 C7,7.44771525 6.55228475,7 6,7 Z" id="Combined-Shape"></path>
        </g>
    </g>
</svg>